<svg width="410" height="406" viewBox="0 0 410 406" fill="none" xmlns="http://www.w3.org/2000/svg">
<g clip-path="url(#clip0)">
<rect width="410" height="406" fill="#D7E9FE"/>
<circle cx="250" cy="250" r="250" fill="#D7E9FE"/>
<path d="M205 87C237.045 87 263 112.955 263 145C263 177.045 237.045 203 205 203C172.955 203 147 177.045 147 145C147 112.955 172.955 87 205 87ZM205 319C205 319 321 319 321 290C321 255.2 264.45 217.5 205 217.5C145.55 217.5 89 255.2 89 290C89 319 205 319 205 319Z" fill="#83CBFB"/>
</g>
<defs>
<clipPath id="clip0">
<rect width="410" height="406" fill="white"/>
</clipPath>
</defs>
</svg>
